<?xml version="1.0" ?><!DOCTYPE svg  PUBLIC '-//W3C//DTD SVG 1.1//EN'  'http://www.w3.org/Graphics/SVG/1.1/DTD/svg11.dtd'><svg enable-background="new 0 0 24 24" height="24px" id="Layer_1" version="1.1" viewBox="0 0 24 24" width="24px" xml:space="preserve" xmlns="http://www.w3.org/2000/svg" xmlns:xlink="http://www.w3.org/1999/xlink"><g><path d="M19,14c-0.1,0-0.2,0-0.3,0c-0.2-0.6-0.4-1.2-0.8-1.7c0.1,0.2,0.2,0.3,0.3,0.5c0.6-0.5,1.2-1.2,1.5-2.1   c0.9-2.6-0.4-5.5-3-6.4c-2.6-0.9-5.5,0.4-6.4,3C10.1,8,10,8.6,10,9.3c0,0,0.1,0,0.1,0C8.5,9.7,7.2,10.7,6.2,12c-0.1,0-0.2,0-0.2,0   c-3.3,0-6,2.7-6,6s2.7,6,6,6h13c2.8,0,5-2.2,5-5S21.8,14,19,14z M11,9c0-2.2,1.8-4,4-4s4,1.8,4,4c0,1.2-0.5,2.2-1.3,2.9   c0,0,0,0,0,0c-1.3-1.8-3.4-3-5.7-3C11.6,9,11.3,9,11,9C10.9,9.1,11,9.1,11,9C11,9,11,9,11,9z M19,22H6c-2.2,0-4-1.8-4-4   c0-0.3,0-0.5,0.1-0.8c0-0.1,0-0.2,0.1-0.2c0-0.2,0.1-0.3,0.1-0.5c0-0.1,0.1-0.2,0.1-0.3c0.1-0.1,0.1-0.2,0.2-0.4   c0.1-0.1,0.1-0.2,0.2-0.3c0.1-0.1,0.1-0.2,0.2-0.3c0.1-0.1,0.2-0.2,0.3-0.3c0.1-0.1,0.2-0.1,0.2-0.2c0.1-0.1,0.2-0.2,0.3-0.2   c0.1,0,0.2-0.1,0.2-0.1c0.1-0.1,0.3-0.1,0.4-0.2c0.1,0,0.1,0,0.2-0.1C5.2,14.1,5.6,14,6,14c0.5,0,0.9,0.1,1.3,0.2   c0.7-1.7,2.2-3,4.1-3.2c0,0,0.1,0,0.1,0c0.2,0,0.3,0,0.5,0c1.1,0,2.1,0.4,2.9,1c0,0,0,0,0,0c0.9,0.6,1.5,1.5,1.8,2.6   c0.1,0.2,0.1,0.4,0.2,0.6c0,0.3,0.1,0.5,0.1,0.8h2c1.7,0,3,1.3,3,3S20.7,22,19,22z"/><path d="M12,12v1c1.7,0,3,1.3,3,3h1C16,13.8,14.2,12,12,12z"/><path d="M21,9c0,0.3,0,0.7-0.1,1H23c0.6,0,1-0.4,1-1s-0.4-1-1-1h-2.1C21,8.3,21,8.7,21,9z"/><path d="M10.1,5.5c0.2-0.3,0.4-0.5,0.6-0.8s0.5-0.5,0.8-0.6l-1.5-1.5c-0.4-0.4-1-0.4-1.4,0C8.3,3,8.3,3.6,8.7,4L10.1,5.5z"/><path d="M16,3V0.9c0-0.6-0.4-1-1-1c-0.6,0-1,0.4-1,1V3c0-0.1,0.7-0.1,1-0.1C15.3,2.9,16,3,16,3z"/><path d="M19.9,5.4L21.4,4c0.4-0.4,0.4-1,0-1.4c-0.4-0.4-1-0.4-1.4,0L18.5,4c0,0,0.5,0.4,0.8,0.6C19.5,4.9,20,5.4,19.9,5.4z"/></g></svg>